<svg width="48" height="48" viewBox="0 0 48 48" fill="none" xmlns="http://www.w3.org/2000/svg">
<path d="M30.645 23.6739C30.4265 23.8883 30.1352 23.9955 29.844 23.9955C29.5163 23.9955 29.225 23.8883 29.0065 23.6739L25.1834 19.9218V30.8565C25.1834 31.4997 24.6372 32 24.0182 32C23.4356 32 22.8531 31.4997 22.8531 30.8565V19.9218L18.9935 23.6739C18.5566 24.1385 17.7919 24.1385 17.355 23.6739C16.8817 23.2451 16.8817 22.4947 17.355 22.0659L23.1808 16.3484C23.6177 15.8839 24.3823 15.8839 24.8192 16.3484L30.645 22.0659C31.1183 22.4947 31.1183 23.2451 30.645 23.6739Z" fill="#00BDDD"/>
</svg>
