<svg width="48" height="48" viewBox="0 0 48 48" fill="none" xmlns="http://www.w3.org/2000/svg">
<path d="M24.0203 16C24.6102 16 25.1306 16.4688 25.1306 17V18.125C25.1653 18.125 25.2347 18.1562 25.2694 18.1562C25.6511 18.1875 26.7267 18.375 27.1777 18.4688C27.7676 18.5938 28.1492 19.1562 28.0104 19.6875C27.837 20.2188 27.2471 20.5312 26.6573 20.4062C26.3103 20.3125 25.3388 20.1875 24.9571 20.125C23.8468 19.9688 22.8753 20.0625 22.2161 20.2812C21.5915 20.5 21.314 20.8125 21.2446 21.1562C21.1752 21.5 21.2446 21.6875 21.314 21.8125C21.3834 21.9375 21.4874 22.0625 21.765 22.2188C22.3202 22.5625 23.1876 22.7812 24.2979 23.0625H24.402C25.3735 23.3125 26.5879 23.625 27.49 24.1562C27.9757 24.4375 28.4268 24.8438 28.7044 25.375C29.0166 25.9375 29.0513 26.5625 28.9473 27.2188C28.7044 28.4062 27.7676 29.2188 26.6573 29.625C26.1715 29.8125 25.6511 29.9062 25.1306 29.9688V31C25.1306 31.5625 24.6102 32 24.0203 32C23.3958 32 22.91 31.5625 22.91 31V29.9375C22.8753 29.9375 22.8753 29.9062 22.8406 29.9062C22.0079 29.8125 20.62 29.4688 19.6832 29.0938C19.0934 28.875 18.8505 28.2812 19.0934 27.7812C19.3363 27.2812 19.9955 27.0312 20.5506 27.2812C21.2793 27.5625 22.4937 27.8438 23.1876 27.9375C24.2979 28.0938 25.2 28 25.8245 27.7812C26.4144 27.5625 26.6573 27.25 26.7614 26.875C26.8307 26.5312 26.7614 26.3438 26.692 26.2188C26.6226 26.0938 26.5185 25.9688 26.2409 25.8125C25.6858 25.4688 24.8183 25.25 23.708 24.9688H23.604C22.6324 24.7188 21.4181 24.4062 20.5159 23.875C20.0302 23.5938 19.5791 23.1875 19.3016 22.6562C18.9893 22.0938 18.9546 21.4688 19.0587 20.7812C19.3363 19.5938 20.3078 18.8125 21.4181 18.4062C21.8691 18.25 22.3896 18.1562 22.91 18.0938V17C22.91 16.4688 23.3958 16 24.0203 16Z" fill="#00BDDD"/>
</svg>
