<svg width="24" height="24" viewBox="0 0 24 24" fill="none" xmlns="http://www.w3.org/2000/svg">
<g clip-path="url(#clip0_5_117)">
<path d="M24 12C24 5.37188 18.6281 0 12 0C5.37188 0 0 5.37188 0 12C0 17.9902 4.38563 22.9547 10.1259 23.8552V15.4716H7.08141V12H10.1259V9.35672C10.1259 6.35156 11.9142 4.68844 14.6564 4.68844C15.9713 4.68844 17.3456 4.92516 17.3456 4.92516V7.87734H15.8334C14.3409 7.87734 13.8806 8.80453 13.8806 9.75141V12H17.2078L16.6753 15.4716H13.8806V23.8552C19.6144 22.9547 24 17.9902 24 12Z" fill="#1877F2"/>
<path d="M16.6681 15.4716L17.2011 12H13.8739V9.75141C13.8739 8.80454 14.3408 7.87735 15.8267 7.87735H17.3389V4.92516C17.3389 4.92516 15.9646 4.68845 14.6497 4.68845C11.908 4.68845 10.1192 6.35204 10.1192 9.35673V12H7.07471V15.4716H10.1192V23.8552C10.731 23.9536 11.3553 24 11.9933 24C12.6313 24 13.2556 23.9475 13.8674 23.8552V15.4716H16.6681Z" fill="white"/>
</g>
<defs>
<clipPath id="clip0_5_117">
<rect width="24" height="24" fill="white"/>
</clipPath>
</defs>
</svg>
