<svg width="45" height="45" viewBox="0 0 45 45" fill="none" xmlns="http://www.w3.org/2000/svg">
<path d="M4.266 35.6872L13.0658 26.8875L19.431 33.2505L29.7158 22.9657L33.75 27V15.75H22.5L26.5343 19.7842L19.431 26.8875L13.0658 20.5222L1.9395 31.6507C0.659093 28.7701 -0.00168405 25.6524 3.22316e-06 22.5C3.22316e-06 10.0733 10.0733 0 22.5 0C34.9268 0 45 10.0733 45 22.5C45 34.9267 34.9268 45 22.5 45C18.9402 45.0021 15.4308 44.1588 12.2608 42.5393C9.09067 40.9198 6.35056 38.5728 4.266 35.6872Z" fill="#C4C4C4"/>
</svg>
