<svg width="48" height="48" viewBox="0 0 48 48" fill="none" xmlns="http://www.w3.org/2000/svg">
<path d="M30 17C30.5312 17 31 17.4688 31 18C31 18.5625 30.5312 19 30 19H18.5C18.2188 19 18 19.25 18 19.5C18 19.7812 18.2188 20 18.5 20H30C31.0938 20 32 20.9062 32 22V29C32 30.125 31.0938 31 30 31H18C16.875 31 16 30.125 16 29V19C16 17.9062 16.875 17 18 17H30ZM29 26.5C29.5312 26.5 30 26.0625 30 25.5C30 24.9688 29.5312 24.5 29 24.5C28.4375 24.5 28 24.9688 28 25.5C28 26.0625 28.4375 26.5 29 26.5Z" fill="#00BDDD"/>
</svg>
