<svg width="45" height="45" viewBox="0 0 45 45" fill="none" xmlns="http://www.w3.org/2000/svg">
<path d="M22.5 45C10.0733 45 0 34.9267 0 22.5C0 10.0733 10.0733 0 22.5 0C34.9267 0 45 10.0733 45 22.5C45 34.9267 34.9267 45 22.5 45ZM14.625 27V31.5H20.25V36H24.75V31.5H27C28.4918 31.5 29.9226 30.9074 30.9775 29.8525C32.0324 28.7976 32.625 27.3668 32.625 25.875C32.625 24.3832 32.0324 22.9524 30.9775 21.8975C29.9226 20.8426 28.4918 20.25 27 20.25H18C17.7016 20.25 17.4155 20.1315 17.2045 19.9205C16.9935 19.7095 16.875 19.4234 16.875 19.125C16.875 18.8266 16.9935 18.5405 17.2045 18.3295C17.4155 18.1185 17.7016 18 18 18H30.375V13.5H24.75V9H20.25V13.5H18C16.5082 13.5 15.0774 14.0926 14.0225 15.1475C12.9676 16.2024 12.375 17.6332 12.375 19.125C12.375 20.6168 12.9676 22.0476 14.0225 23.1025C15.0774 24.1574 16.5082 24.75 18 24.75H27C27.2984 24.75 27.5845 24.8685 27.7955 25.0795C28.0065 25.2905 28.125 25.5766 28.125 25.875C28.125 26.1734 28.0065 26.4595 27.7955 26.6705C27.5845 26.8815 27.2984 27 27 27H14.625Z" fill="#C4C4C4"/>
</svg>
